<?xml version="1.0" encoding="utf-8"?>
<svg viewBox="0 0 65 65" width="65" height="65" xmlns="http://www.w3.org/2000/svg">
  <path d="M23.1324 40.015L26.6746 42.5676L37.2945 43.8924L39.9996 47L45.5067 46.4914L54.4996 40.5425L55.4996 38C55.4996 38 55.5189 37.5969 55.2939 32.8031C55.0126 27.9515 50.2315 23.6198 50.2315 23.6198L45.0567 17.9019L35.5508 17.0355L28.0136 17.9019L19.3514 23.6198L14.2891 31.4747V36.8461L18.0577 40.5425L23.795 38.4055L23.1324 40.015Z" fill="#EEEEEE"/>
  <path d="M55.8294 29.7011C55.7725 29.1766 55.6588 28.5938 55.4882 28.0692C55.4882 28.011 55.4313 27.9527 55.4313 27.8944C54.5783 24.922 52.6447 22.5325 50.1425 21.1337C47.5833 16.8791 42.5788 14.6644 37.5743 15.8884C37.4037 15.9466 37.2331 16.0049 37.0056 16.0632C37.0056 16.0632 37.0056 16.0632 36.9488 16.0632C34.7309 14.9558 32.1149 14.6644 29.5557 15.4221C27.6222 16.0049 26.0298 17.1123 24.7787 18.511C23.7551 18.4528 22.6746 18.5693 21.6509 18.8607C18.4662 19.7932 16.1915 22.5325 15.5659 25.6797C12.9499 27.9527 11.4144 31.741 12.2106 35.3545C13.2911 40.2501 17.8407 43.9219 24.4944 41.0661C24.4944 41.1244 24.4944 41.1244 24.5512 41.1826C24.7787 38.3851 26.4848 36.7532 27.4516 35.9956C25.7455 33.5477 21.7078 28.8269 18.7506 30.2257C16.817 31.1582 16.5327 32.9649 17.1014 34.3054C17.7269 35.7042 19.2624 36.6949 21.4803 35.7624C21.8784 35.5876 22.3902 35.7624 22.5608 36.2287C22.7314 36.6367 22.5608 37.1612 22.1059 37.336C18.9212 38.6765 16.4758 37.0446 15.6228 34.9465C14.7128 32.8484 15.2815 29.9925 18.0681 28.6521C18.6368 28.3607 19.3193 28.1858 20.1723 28.2441C20.1723 26.4956 20.741 25.0386 21.8215 23.9312C23.5276 22.1828 26.0298 21.8331 27.2241 21.7748C28.0771 19.2104 30.4657 17.7534 33.5935 17.9865C35.2427 18.1031 36.6644 18.919 37.6881 19.6767C38.1999 20.0846 38.6548 20.4926 38.9392 20.784C40.759 19.6184 43.3181 18.919 45.4792 19.7349C46.9578 20.2595 48.7776 21.6 49.4032 25.1552C50.1993 25.5631 51.7917 26.5539 52.2466 28.3607C52.5878 29.6429 52.3035 31.0999 51.4505 32.2655C50.7112 33.3146 49.1188 34.5968 45.991 34.7134C45.9341 34.7134 45.9341 34.7134 45.8773 34.7134C45.8204 34.7134 40.1334 34.1306 38.0862 38.2686C37.9724 38.5017 37.8587 38.7348 37.7449 38.9097C37.0056 40.1336 36.2095 40.833 35.2996 41.1244C35.1289 41.1826 34.9583 41.1826 34.7877 41.2409C33.0248 41.4158 31.8305 39.9004 31.7737 39.8422C31.4893 39.4925 31.5462 38.9679 31.8874 38.6765C32.2286 38.3851 32.7404 38.4434 33.0248 38.7931C33.0248 38.7931 33.7641 39.6673 34.6171 39.609C35.2996 39.5508 35.982 38.7931 36.6644 37.5109C36.9488 36.9281 37.3468 36.4035 37.7449 35.879C38.8823 34.5968 40.4747 33.7226 42.4082 33.3146C44.1712 32.9066 45.7066 33.0232 46.0479 33.0815C48.4932 32.9649 49.6306 32.0907 50.1993 31.333C50.7111 30.5754 50.9386 29.7011 50.7111 28.8852C50.3131 27.3699 48.4364 26.6705 48.4364 26.6122C48.152 26.4956 47.9246 26.2625 47.9246 25.9128C47.5833 23.465 46.6166 21.9497 45.0242 21.3668C43.0338 20.6675 40.4178 21.6582 38.9961 22.9987C37.3468 24.6306 37.8587 26.7288 38.143 27.4864C41.1002 26.7288 43.3181 28.2441 43.375 28.3607C43.7731 28.6521 43.83 29.1766 43.6025 29.5263C43.3181 29.9343 42.8063 29.9925 42.4651 29.7594C42.4082 29.7011 40.6453 28.5355 38.3136 29.2349C38.0862 29.2932 37.9155 29.3514 37.7449 29.4097C35.982 30.1091 35.4702 31.2165 35.4702 31.333C35.4133 31.5662 35.2427 31.741 35.0152 31.8576C34.7877 31.9741 34.5603 31.9158 34.3328 31.8576C34.219 31.7993 32.6267 31.1582 30.8069 32.6152C28.9302 34.0723 29.3851 36.0538 29.442 36.1121C29.5557 36.5201 29.3851 36.9281 29.0439 37.1029C28.9302 37.1612 26.4848 38.5017 26.3142 41.5906C26.2573 42.9311 26.8829 44.3881 28.1909 45.2624C29.6695 46.02 31.4324 46.1949 33.1385 45.7286C33.7641 45.5538 34.3328 45.2624 34.8446 44.9127C35.7545 45.3789 36.7782 45.6121 37.8018 45.4955C39.0529 45.4955 40.8159 44.6213 41.2708 44.3881C43.0907 43.3391 44.1143 42.29 44.7399 41.5323C45.7635 40.3667 45.8773 39.4925 45.8773 39.3759C45.8773 39.1428 45.991 38.9097 46.1616 38.7348C46.3322 38.56 46.6166 38.56 46.844 38.56C49.1188 39.0845 51.3936 38.56 53.4409 37.1029C54.4077 36.4035 55.147 35.5293 55.4882 34.3637C55.6588 33.8391 55.7725 33.3146 55.8294 32.7901C55.8863 32.2655 55.9431 31.741 56 31.2165C55.8863 30.7502 55.8863 30.2257 55.8294 29.7011Z" fill="white"/>
  <path d="M54 38.5C51.7821 40.0736 49.9454 40.7914 47.5 40.5C47.3294 41.0245 46.6824 41.6841 46 42.5C44.692 44.1319 42.7297 45.7871 40 47.011C41.4786 48.8177 44.216 49.9697 46.6045 49.2703C47.4007 49.0372 48.14 48.6292 48.7087 48.1046C48.993 48.0464 49.3342 47.9881 49.6186 47.8715C53.7749 46.6052 55.9575 42.4288 55.5177 38.1709C55.5122 38.1176 55.5063 37.5533 55.5 37.5C55 38 54.5667 38.0979 54 38.5Z" fill="white"/>
  <path d="M33.4233 19.735C30.8642 19.5602 29.0444 20.6675 28.5894 22.8239C28.4757 23.2319 28.1345 23.5233 27.7364 23.465C27.6795 23.465 24.6086 23.4067 22.9025 25.1552C22.1063 25.9711 21.7082 27.0785 21.7651 28.4773C21.7651 28.5355 21.7651 28.5938 21.7651 28.6521C22.9025 29.0601 24.2105 29.876 25.6322 31.3331C26.4853 32.149 27.2246 33.0815 27.7933 33.7809C28.0776 32.965 28.5894 32.0325 29.6131 31.2165C31.4329 29.7595 33.139 29.8177 34.1058 30.0509C34.5038 29.4681 35.1863 28.7104 36.4374 28.0693C35.8687 26.6122 35.5844 23.9313 37.5748 21.8914C36.8355 21.192 35.2431 19.8516 33.4233 19.735Z" fill="white"/>
</svg>